<svg width="34" height="34" viewBox="0 0 34 34" fill="none" xmlns="http://www.w3.org/2000/svg">
<g clip-path="url(#clip0_2788_101)">
<path fill-rule="evenodd" clip-rule="evenodd" d="M27.2145 15.1414C26.2214 14.4887 24.7156 13.7853 22.6002 12.8004L17.8115 10.5707C16.1106 9.77867 14.8781 9.20549 13.9504 8.86117C12.9804 8.50119 12.5404 8.47354 12.3305 8.53543C11.6839 8.72605 11.1893 9.249 11.035 9.90521C10.9849 10.1183 11.037 10.5561 11.4505 11.5044C11.846 12.4116 12.487 13.6102 13.3726 15.2643C13.3865 15.2905 13.4004 15.3162 13.414 15.3417C13.6031 15.6943 13.7593 15.9856 13.8599 16.278L21.345 16.1108C21.7693 16.1013 22.1208 16.4375 22.1303 16.8617C22.1398 17.2859 21.8036 17.6375 21.3794 17.647L13.9272 17.8135C13.8467 18.139 13.6969 18.4602 13.512 18.8566C13.4998 18.8828 13.4875 18.9093 13.475 18.9362C12.683 20.6371 12.1098 21.8696 11.7655 22.7974C11.4055 23.7673 11.3778 24.2073 11.4397 24.4172C11.6303 25.0638 12.1533 25.5584 12.8095 25.7127C13.0226 25.7628 13.4603 25.7107 14.4087 25.2972C15.3159 24.9017 16.5144 24.2607 18.1686 23.3752L22.8256 20.882C24.8828 19.7807 26.3471 18.9945 27.3022 18.2875C28.2619 17.5771 28.4889 17.1045 28.4771 16.6804C28.4652 16.2564 28.2123 15.7972 27.2145 15.1414ZM28.0585 13.8573C29.1637 14.5838 29.9794 15.4282 30.0131 16.6376C30.0468 17.847 29.2795 18.7356 28.2165 19.5225C27.1598 20.3047 25.5945 21.1427 23.6127 22.2036L18.8595 24.7482C17.2468 25.6116 15.9937 26.2825 15.0228 26.7058C14.0864 27.114 13.2171 27.3871 12.4578 27.2085C11.264 26.9278 10.3126 26.0281 9.96582 24.8518C9.74526 24.1036 9.96941 23.2204 10.3249 22.2627C10.6934 21.2698 11.2933 19.9812 12.0655 18.3229L12.082 18.2876C12.3525 17.7066 12.4209 17.5443 12.4471 17.3892C12.4765 17.2156 12.4716 17.0379 12.4326 16.8662C12.3977 16.7128 12.3203 16.5546 12.0179 15.9896L11.9994 15.9552C11.1361 14.3425 10.4652 13.0894 10.042 12.1185C9.63368 11.1821 9.36066 10.3128 9.53919 9.55352C9.81987 8.3597 10.7196 7.40832 11.896 7.06153C12.6441 6.84097 13.5273 7.06512 14.485 7.42057C15.4779 7.78907 16.7665 8.38905 18.4248 9.16121L23.3125 11.437C25.3503 12.3858 26.9599 13.1353 28.0585 13.8573Z" fill="#466DF0"/>
</g>
<defs>
<clipPath id="clip0_2788_101">
<rect width="24" height="24" fill="white" transform="translate(16.5269 0.0361328) rotate(43.4025)"/>
</clipPath>
</defs>
</svg>
